<?xml version="1.0" encoding="UTF-8"?>
<svg id="Layer_1" xmlns="http://www.w3.org/2000/svg" version="1.1" viewBox="0 0 92 92">
  <!-- Generator: Adobe Illustrator 30.3.0, SVG Export Plug-In . SVG Version: 2.1.3 Build 182)  -->
  <defs>
    <style>
      .st0 {
        fill: #fff;
      }
    </style>
  </defs>
  <path class="st0" d="M0,0h92v92H0V0ZM59.9,19c2.2,11.1,3.1,24.4-3.1,34.3s-10.6,9.2-17.7,7.5-1.3.4-1.4.9.5,1,1.1,1.2c7.2,1.5,14.3-1.1,18.7-7.1,7.8-10.6,6.7-26.1,4-38.6-.1-.5-1-.8-1.5-.6l-14.1,6.4c-3.4,1.5-6.5,3.1-9.5,5.3-4.5,3.3-7.9,7.7-9.5,13s-.3,13.1,4.8,17.7,1.2.4,1.5,0,.3-1.3,0-1.5c-4.8-4-6.3-10-4.3-15.9s5.3-9.3,9.8-12.4c3-1.9,6-3.3,9.2-4.8l11.8-5.4ZM33.3,70.9c2.7-13.1,11.3-26.5,19.5-36.8s.3-1.3,0-1.6-1.1-.2-1.4.2c-8.7,10.9-17.2,24.2-20.1,37.9s.2,1.4.8,1.5,1-.4,1.2-1.2Z"/>
  <g>
    <path d="M59.9,19l-11.8,5.4c-3.2,1.5-6.2,2.9-9.2,4.8-4.5,3.1-8.1,7.2-9.8,12.4s-.5,11.9,4.3,15.9.4,1.2,0,1.5-1.1.3-1.5,0c-5.1-4.5-6.9-11.1-4.8-17.7s5-9.7,9.5-13,6.1-3.7,9.5-5.3l14.1-6.4c.4-.2,1.3,0,1.5.6,2.7,12.5,3.8,28-4,38.6s-11.5,8.6-18.7,7.1-1.2-.5-1.1-1.2.8-1,1.4-.9c7.1,1.6,13.9-1.4,17.7-7.5,6.2-9.9,5.3-23.2,3.1-34.3Z"/>
    <path d="M33.3,70.9c-.2.8-.6,1.2-1.2,1.2s-1-.7-.8-1.5c2.9-13.7,11.4-27,20.1-37.9s1.1-.4,1.4-.2c.4.3.5,1.1,0,1.6-8.2,10.3-16.8,23.7-19.5,36.8Z"/>
  </g>
</svg>